<svg xmlns="http://www.w3.org/2000/svg" viewBox="0 0 182.5 166.62"><defs><style>.cls-1{fill:#d7d7d7;}.cls-2{fill:#d7d7d7;}.cls-3{fill:none;stroke:#d7d7d7;stroke-linecap:round;stroke-miterlimit:10;stroke-width:11.5px;}</style></defs><title>Asset 10</title><g id="Layer_2" data-name="Layer 2"><g id="Work">

<circle class="cls-2" cx="47.9" cy="25.49" r="2.82"/><circle class="cls-2" cx="54.17" cy="35.71" r="2.82"/><circle class="cls-2" cx="25.8" cy="25.49" r="2.82"/><circle class="cls-2" cx="20.16" cy="35.71" r="2.82"/><path class="cls-2" d="M104.73,118.78A17.63,17.63,0,0,0,92,113.59a18,18,0,0,0-13,5.19,18,18,0,0,0,0,25.56,17.71,17.71,0,0,0,13,5.33,18.08,18.08,0,0,0,12.72-30.89ZM97.36,137a7.54,7.54,0,1,1,2.23-5.38A7.26,7.26,0,0,1,97.36,137Z"/><path class="cls-2" d="M60.1,111.32V97.26h0V95.35c0-6.58,5.8-11.9,12.94-11.9h31.25l16.13-29.9c1.9-3.16,5.88-4.27,8.85-4.27H177v9.9H165.35a3.64,3.64,0,0,0-3.65,3.65V82.49l15.26.08v47.75l-60.12,0a23.68,23.68,0,0,0-4.5-15.3c-4.88-6.36-12.76-9.8-20.9-9.8A25.94,25.94,0,0,0,74,111.42q-7.91,6.59-8.59,16H60.32c-3.71,0-5.58-1.87-5.58-5.57V111.32Zm93.13-28.8,0-19c0-2.84-1.4-4.25-4.24-4.25H130.7a4.26,4.26,0,0,0-4.07,2.07l-10.3,21.16Z"/><path class="cls-2" d="M43.33,154.28V86.06c18.52-4.52,31.41-30.2,31.41-48A37.13,37.13,0,0,0,.47,38c0,17.84,12.89,43.52,31.41,48v68.22H6.2v11.45H177V154.28ZM12.41,43.57A33.9,33.9,0,0,1,11.92,38a25.68,25.68,0,0,1,51.37,0,33.88,33.88,0,0,1-.49,5.55H44.66a7.17,7.17,0,0,0,.24-1.76,7.27,7.27,0,0,0-5.16-6.94V17.94H35.46V34.86A7.28,7.28,0,0,0,30.3,41.8a7.17,7.17,0,0,0,.24,1.76Z"/><line class="cls-3" x1="176.75" y1="159.93" x2="5.75" y2="159.93"/></g></g></svg>